<svg width="36" height="36" viewBox="0 0 36 36" fill="none" xmlns="http://www.w3.org/2000/svg">
<path d="M18.0001 18L11.5907 12.6589C10.6385 11.8653 10.1623 11.4685 9.82002 10.9821C9.51673 10.5512 9.29149 10.0703 9.15458 9.56141C9.00006 8.98706 9.00006 8.36727 9.00006 7.12769V2.99998M18.0001 18L24.4094 12.6589C25.3617 11.8653 25.8378 11.4685 26.1801 10.9821C26.4834 10.5512 26.7086 10.0703 26.8455 9.56141C27.0001 8.98706 27.0001 8.36727 27.0001 7.12769V2.99998M18.0001 18L11.5907 23.3411C10.6385 24.1347 10.1623 24.5314 9.82002 25.0178C9.51673 25.4488 9.29149 25.9297 9.15458 26.4386C9.00006 27.0129 9.00006 27.6327 9.00006 28.8723V33M18.0001 18L24.4094 23.3411C25.3617 24.1347 25.8378 24.5314 26.1801 25.0178C26.4834 25.4488 26.7086 25.9297 26.8455 26.4386C27.0001 27.0129 27.0001 27.6327 27.0001 28.8723V33M6.00006 2.99998H30.0001M6.00006 33H30.0001" stroke="#E57818" stroke-width="0.975" stroke-linecap="round" stroke-linejoin="round"/>
</svg>
