<svg width="36" height="36" viewBox="0 0 36 36" fill="none" xmlns="http://www.w3.org/2000/svg">
<path d="M20.9999 3.40428V9.60009C20.9999 10.4402 20.9999 10.8602 21.1634 11.1811C21.3072 11.4633 21.5366 11.6928 21.8189 11.8366C22.1398 12.0001 22.5598 12.0001 23.3999 12.0001H29.5957M14.2499 18L21.7499 25.5M21.7499 18L14.2499 25.5M20.9999 2.99998H13.1999C10.6796 2.99998 9.41952 2.99998 8.45692 3.49046C7.61019 3.92189 6.92178 4.6103 6.49035 5.45703C5.99988 6.41963 5.99988 7.67975 5.99988 10.2V25.8C5.99988 28.3202 5.99988 29.5803 6.49035 30.5429C6.92178 31.3897 7.61019 32.0781 8.45692 32.5095C9.41952 33 10.6796 33 13.1999 33H22.7999C25.3201 33 26.5802 33 27.5428 32.5095C28.3896 32.0781 29.078 31.3897 29.5094 30.5429C29.9999 29.5803 29.9999 28.3202 29.9999 25.8V12L20.9999 2.99998Z" stroke="#D33126" stroke-width="0.975" stroke-linecap="round" stroke-linejoin="round"/>
</svg>
