<svg width="36" height="36" viewBox="0 0 36 36" fill="none" xmlns="http://www.w3.org/2000/svg">
<path d="M21.0001 3.40431V9.60013C21.0001 10.4402 21.0001 10.8602 21.1636 11.1811C21.3074 11.4634 21.5368 11.6928 21.8191 11.8366C22.1399 12.0001 22.56 12.0001 23.4001 12.0001H29.5959M21.0001 25.5H12.0001M24.0001 19.5H12.0001M30.0001 14.9824V25.8C30.0001 28.3203 30.0001 29.5804 29.5096 30.543C29.0782 31.3897 28.3897 32.0781 27.543 32.5095C26.5804 33 25.3203 33 22.8001 33H13.2001C10.6798 33 9.41971 33 8.4571 32.5095C7.61037 32.0781 6.92196 31.3897 6.49053 30.543C6.00006 29.5804 6.00006 28.3203 6.00006 25.8V10.2C6.00006 7.67978 6.00006 6.41966 6.49053 5.45706C6.92196 4.61033 7.61037 3.92192 8.4571 3.49049C9.41971 3.00002 10.6798 3.00002 13.2001 3.00002H18.0177C19.1184 3.00002 19.6687 3.00002 20.1866 3.12435C20.6458 3.23459 21.0847 3.41641 21.4873 3.66313C21.9415 3.94142 22.3306 4.33056 23.1089 5.10885L27.8912 9.89118C28.6695 10.6695 29.0587 11.0586 29.3369 11.5127C29.5837 11.9154 29.7655 12.3543 29.8757 12.8135C30.0001 13.3314 30.0001 13.8817 30.0001 14.9824Z" stroke="#20939C" stroke-width="0.975" stroke-linecap="round" stroke-linejoin="round"/>
</svg>
