<svg width="36" height="36" viewBox="0 0 36 36" fill="none" xmlns="http://www.w3.org/2000/svg">
<path d="M29.9999 18.75V10.2C29.9999 7.67978 29.9999 6.41966 29.5094 5.45706C29.078 4.61033 28.3896 3.92192 27.5428 3.49049C26.5802 3.00002 25.3201 3.00002 22.7999 3.00002H13.1999C10.6796 3.00002 9.41952 3.00002 8.45692 3.49049C7.61019 3.92192 6.92178 4.61033 6.49035 5.45706C5.99988 6.41966 5.99988 7.67978 5.99988 10.2V25.8C5.99988 28.3203 5.99988 29.5804 6.49035 30.543C6.92178 31.3897 7.61019 32.0781 8.45692 32.5095C9.41952 33 10.6796 33 13.1999 33H17.9999M20.9999 16.5H11.9999M14.9999 22.5H11.9999M23.9999 10.5H11.9999M21.7499 28.5L24.7499 31.5L31.4999 24.75" stroke="#00C950" stroke-width="0.975" stroke-linecap="round" stroke-linejoin="round"/>
</svg>
