<svg width="36" height="36" viewBox="0 0 36 36" fill="none" xmlns="http://www.w3.org/2000/svg">
<path d="M27 23.7553C29.1839 24.8524 31.0562 26.6129 32.4229 28.8144C32.6935 29.2504 32.8288 29.4684 32.8756 29.7702C32.9707 30.3837 32.5512 31.1378 31.9799 31.3805C31.6988 31.5 31.3825 31.5 30.75 31.5M24 17.2984C26.2226 16.1938 27.75 13.9003 27.75 11.25C27.75 8.59971 26.2226 6.30617 24 5.20164M21 11.25C21 14.9779 17.9779 18 14.25 18C10.5221 18 7.5 14.9779 7.5 11.25C7.5 7.52208 10.5221 4.5 14.25 4.5C17.9779 4.5 21 7.52208 21 11.25ZM3.83884 28.4075C6.23031 24.8168 10.0041 22.5 14.25 22.5C18.4959 22.5 22.2697 24.8168 24.6612 28.4075C25.1851 29.1941 25.447 29.5874 25.4169 30.0899C25.3934 30.4811 25.1369 30.96 24.8243 31.1964C24.4229 31.5 23.8707 31.5 22.7665 31.5H5.73353C4.62926 31.5 4.07712 31.5 3.67566 31.1964C3.36307 30.96 3.10663 30.4811 3.08315 30.0899C3.05299 29.5874 3.31494 29.1941 3.83884 28.4075Z" stroke="#20939C" stroke-width="0.975" stroke-linecap="round" stroke-linejoin="round"/>
</svg>
